<svg width="59" height="59" viewBox="0 0 59 59" fill="none" xmlns="http://www.w3.org/2000/svg">
<path d="M29.5037 0.97168L0 22.9988V58.0282H59V22.9988L29.5037 0.97168ZM21.3417 16.6897C22.2073 15.1075 23.4002 13.9161 24.9134 13.1254C26.423 12.3279 28.1455 11.9266 30.0934 11.9266C31.7358 11.9266 33.2023 12.2493 34.4857 12.885C35.7682 13.5304 36.7444 14.4384 37.4284 15.6201C38.096 16.8032 38.4424 18.0932 38.4424 19.49C38.4424 21.1569 37.9276 22.6642 36.898 24.0128C35.6073 25.713 33.9597 26.5616 31.9428 26.5616C31.3998 26.5616 30.994 26.4711 30.7158 26.2798C30.4451 26.0854 30.2552 25.8109 30.1647 25.4423C29.4065 26.193 28.5097 26.5698 27.5023 26.5698C26.4156 26.5698 25.515 26.1937 24.7999 25.4504C24.0834 24.6997 23.7266 23.699 23.7266 22.4602C23.7266 20.9143 24.1553 19.5182 25.0195 18.2527C26.0699 16.7068 27.4066 15.9309 29.0431 15.9309C30.2084 15.9309 31.0689 16.3767 31.6208 17.2698L31.8664 16.1809H34.4627L32.9805 23.2124C32.8878 23.6619 32.8418 23.9438 32.8418 24.0751C32.8418 24.2443 32.8804 24.357 32.9524 24.4438C33.0258 24.5261 33.1178 24.5662 33.2172 24.5662C33.5406 24.5662 33.9434 24.3822 34.4382 23.9957C35.1065 23.5039 35.6451 22.8281 36.056 21.9966C36.467 21.1591 36.6784 20.2912 36.6784 19.3943C36.6784 17.7883 36.0983 16.4442 34.9337 15.3552C33.7668 14.2796 32.1371 13.7344 30.0541 13.7344C28.279 13.7344 26.7776 14.0956 25.5462 14.8234C24.3148 15.5399 23.3853 16.5614 22.7533 17.8751C22.1309 19.1807 21.8201 20.5508 21.8201 21.9699C21.8201 23.3467 22.1754 24.6048 22.8668 25.7338C23.5678 26.871 24.5433 27.6929 25.8014 28.2151C27.0595 28.7322 28.5038 28.991 30.1246 28.991C31.6802 28.991 33.0243 28.7737 34.1541 28.3375C35.2831 27.9021 36.1859 27.2567 36.8735 26.3784H38.9558C38.303 27.7077 37.3038 28.7463 35.9522 29.5051C34.4003 30.3678 32.5102 30.7958 30.2819 30.7958C28.1173 30.7958 26.2568 30.4346 24.6872 29.7069C23.1138 28.9755 21.9507 27.9013 21.1785 26.48C20.4159 25.0573 20.0398 23.5069 20.0398 21.8304C20.0413 19.993 20.47 18.2779 21.3417 16.6897ZM2.08001 23.6938L23.8475 38.2925L2.08001 55.1403V23.6938ZM3.73349 56.2612L29.5037 36.3178L55.2658 56.2612H3.73349ZM56.9178 55.1403L35.1548 38.2925L56.9185 23.6938V55.1403H56.9178ZM30.566 18.2935C30.9117 18.6874 31.0845 19.2541 31.0845 19.9937C31.0845 20.6547 30.9554 21.3705 30.7039 22.1294C30.4562 22.8979 30.1528 23.4839 29.8071 23.8808C29.5712 24.1589 29.319 24.3644 29.0712 24.4935C28.7456 24.6782 28.3992 24.768 28.0253 24.768C27.5253 24.7724 27.1129 24.5721 26.7709 24.179C26.4371 23.7851 26.2717 23.1805 26.2717 22.3504C26.2717 21.7281 26.3889 21.0115 26.6329 20.2074C26.877 19.4003 27.2338 18.7861 27.7108 18.3462C28.1907 17.91 28.7092 17.6926 29.2686 17.6926C29.7923 17.6964 30.2277 17.8959 30.566 18.2935Z" fill="#010002"/>
</svg>
