<svg width="36" height="33" viewBox="0 0 36 33" fill="none" xmlns="http://www.w3.org/2000/svg">
<path d="M32.7082 13.8071H31.5V13.75H18V19.25H26.4772C25.2405 22.4517 21.9172 24.75 18 24.75C13.0297 24.75 9 21.0561 9 16.5C9 11.9439 13.0297 8.25 18 8.25C20.2942 8.25 22.3815 9.04338 23.9707 10.3393L28.2135 6.45013C25.5345 4.16144 21.951 2.75 18 2.75C9.71625 2.75 3 8.90656 3 16.5C3 24.0934 9.71625 30.25 18 30.25C26.2837 30.25 33 24.0934 33 16.5C33 15.5781 32.8965 14.6781 32.7082 13.8071Z" fill="#FFC107"/>
<path d="M4.72949 10.1001L9.65774 13.4131C10.9912 10.3868 14.2207 8.25 18 8.25C20.2942 8.25 22.3815 9.04337 23.9707 10.3393L28.2135 6.45012C25.5345 4.16144 21.951 2.75 18 2.75C12.2385 2.75 7.24199 5.73169 4.72949 10.1001Z" fill="#FF3D00"/>
<path d="M18 30.25C21.8745 30.25 25.395 28.8908 28.0567 26.6805L23.4142 23.0794C21.9082 24.1251 20.0362 24.75 18 24.75C14.0985 24.75 10.7857 22.4696 9.53774 19.2871L4.64624 22.7418C7.12874 27.1947 12.1702 30.25 18 30.25Z" fill="#4CAF50"/>
<path d="M32.7083 13.8071H31.5V13.75H18V19.25H26.4773C25.8833 20.7879 24.804 22.1141 23.412 23.0801C23.4128 23.0794 23.4135 23.0794 23.4143 23.0787L28.0568 26.6798C27.7283 26.9534 33 23.375 33 16.5C33 15.5781 32.8965 14.6781 32.7083 13.8071Z" fill="#1976D2"/>
</svg>
