<svg width="59" height="59" viewBox="0 0 59 59" fill="none" xmlns="http://www.w3.org/2000/svg">
<path d="M29.5 3.6875C43.7314 3.6875 55.3125 15.2686 55.3125 29.5C55.3125 43.7314 43.7314 55.3125 29.5 55.3125C15.2686 55.3125 3.6875 43.7314 3.6875 29.5C3.6875 15.2686 15.2686 3.6875 29.5 3.6875ZM29.5 0C13.2087 0 0 13.2087 0 29.5C0 45.7913 13.2087 59 29.5 59C45.7913 59 59 45.7913 59 29.5C59 13.2087 45.7913 0 29.5 0ZM45.9461 39.3634L45.7804 38.8592C45.3915 37.6997 44.1095 36.4898 42.9284 36.1656L38.5676 34.9736C37.3864 34.6532 35.7011 35.0853 34.8334 35.9531L33.2561 37.5305C27.5232 35.9784 23.0254 31.4806 21.4769 25.7477L23.0542 24.1704C23.9185 23.3062 24.3506 21.6208 24.0302 20.4361L22.8416 16.0752C22.5212 14.894 21.304 13.6121 20.1445 13.2231L19.6475 13.0574C18.4843 12.6685 16.8242 13.061 15.96 13.929L13.5977 16.2913C13.1764 16.709 12.9062 17.9081 12.9062 17.9118C12.827 25.4093 15.7656 32.6294 21.0663 37.9338C26.3527 43.2201 33.5477 46.1552 41.0199 46.0902C41.0595 46.0902 42.2947 45.8273 42.716 45.4059L45.0783 43.0436C45.9426 42.1829 46.3314 40.5229 45.9461 39.3634Z" fill="black"/>
</svg>
