<svg width="287" height="213" viewBox="0 0 287 213" fill="none" xmlns="http://www.w3.org/2000/svg">
<g clip-path="url(#clip0_355_6)">
<path d="M209.566 202.382H203.856L201.138 180.51H209.566V202.382Z" fill="#9E616A"/>
<path d="M212.58 212.207H208.485L207.754 208.368L205.882 212.207H195.02C194.5 212.207 193.993 212.042 193.573 211.735C193.154 211.429 192.844 210.998 192.689 210.504C192.534 210.011 192.542 209.481 192.712 208.992C192.882 208.503 193.205 208.081 193.633 207.787L202.307 201.839V197.958L211.43 198.498L212.58 212.207Z" fill="#2F2E41"/>
<path d="M243.493 195.226L238.91 198.61L223.586 182.669L230.349 177.675L243.493 195.226Z" fill="#9E616A"/>
<path d="M251.815 201.324L248.529 203.75L245.635 201.103L246.44 205.293L237.724 211.729C237.307 212.037 236.8 212.205 236.28 212.208C235.759 212.21 235.251 212.048 234.83 211.743C234.409 211.439 234.097 211.009 233.94 210.516C233.783 210.024 233.788 209.494 233.955 209.004L237.341 199.092L235.008 195.977L242.654 191.005L251.815 201.324Z" fill="#2F2E41"/>
<path d="M216.215 89.5359C216.215 89.5359 227.05 98.831 222.051 125.329L215.948 151.293L235.851 184.081L229.505 191.748L203.63 156.258L194.253 134.418L191.622 95.5468L216.215 89.5359Z" fill="#2F2E41"/>
<path d="M199.421 140.642L198.77 150.664L200.764 193.371L210.148 191.748L211.942 161.341L199.421 140.642Z" fill="#2F2E41"/>
<path d="M78.9921 207.525L84.099 207.524L86.5282 187.965L78.9915 187.965L78.9921 207.525Z" fill="#FFB6B6"/>
<path d="M77.6895 205.869L79.1269 205.869L84.7387 203.603L87.7465 205.869H87.7469C89.4467 205.869 91.0768 206.539 92.2787 207.733C93.4806 208.926 94.1559 210.545 94.156 212.233V212.44L77.6897 212.44L77.6895 205.869Z" fill="#2F2E41"/>
<path d="M98.782 204.329L103.763 205.446L110.472 186.898L103.12 185.25L98.782 204.329Z" fill="#FFB6B6"/>
<path d="M97.8785 202.429L99.2806 202.744L105.257 201.76L107.689 204.629L107.689 204.629C109.347 205.001 110.788 206.011 111.696 207.438C112.604 208.865 112.903 210.592 112.529 212.238L112.483 212.44L96.4211 208.839L97.8785 202.429Z" fill="#2F2E41"/>
<path d="M72.5243 87.949C70.13 95.1195 70.3831 102.903 73.0998 111.257L74.2611 158.29C74.2611 158.29 72.5308 189.134 78.1141 199.987H86.2114L90.2205 155.473L90.724 125.595L108.084 150.802L97.0268 199.26L106.993 200.144L124.935 147.557L102.798 96.5379L72.5243 87.949Z" fill="#2F2E41"/>
<path d="M165.904 67.5244C172.098 61.9824 181.31 59.1958 189.038 62.3034C181.111 66.6734 174.996 73.6867 171.776 82.1024C170.546 85.3524 169.518 89.0945 166.492 90.8345C164.61 91.9172 162.267 91.9701 160.156 91.4475C158.045 90.9247 156.11 89.877 154.202 88.8397L153.659 88.8275C156.096 80.9105 159.711 73.0664 165.904 67.5244Z" fill="#E6E6E6"/>
<path d="M188.995 62.4719C182.151 63.3501 175.759 66.3473 170.729 71.0378C169.628 72.0285 168.691 73.1853 167.952 74.4657C167.274 75.736 166.95 77.1636 167.015 78.6001C167.048 79.9408 167.239 81.3083 166.944 82.6336C166.782 83.3098 166.479 83.9445 166.053 84.4961C165.628 85.0477 165.089 85.5037 164.474 85.8342C162.961 86.6974 161.227 86.9695 159.522 87.1771C157.628 87.4075 155.657 87.6171 154.018 88.6718C153.82 88.7996 153.632 88.4861 153.83 88.3585C156.682 86.5236 160.29 87.1912 163.357 85.9666C164.788 85.3952 166.054 84.3921 166.502 82.8755C166.894 81.5494 166.699 80.1391 166.653 78.7819C166.569 77.3815 166.831 75.9819 167.418 74.7054C168.088 73.3918 168.978 72.2011 170.051 71.1842C172.429 68.8566 175.161 66.9147 178.146 65.4297C181.544 63.7162 185.212 62.5924 188.991 62.107C189.225 62.077 189.227 62.4421 188.995 62.4719H188.995Z" fill="white"/>
<path d="M172.259 69.4328C171.581 68.4879 171.263 67.3344 171.363 66.1783C171.462 65.0223 171.972 63.9391 172.802 63.122C172.97 62.9573 173.236 63.2094 173.067 63.3744C172.293 64.1338 171.818 65.1429 171.728 66.2196C171.637 67.2963 171.938 68.3696 172.574 69.2458C172.712 69.4364 172.396 69.6223 172.259 69.4328V69.4328Z" fill="white"/>
<path d="M166.908 77.9226C169.26 78.3364 171.682 77.8547 173.692 76.5737C173.891 76.4466 174.08 76.76 173.881 76.887C171.786 78.2162 169.264 78.7123 166.818 78.2764C166.585 78.2347 166.676 77.8811 166.908 77.9226V77.9226Z" fill="white"/>
<path d="M181.574 64.1989C181.759 64.6188 182.047 64.9864 182.411 65.2686C182.775 65.5508 183.204 65.7388 183.659 65.8157C183.893 65.8545 183.801 66.208 183.569 66.1695C183.067 66.0822 182.593 65.874 182.19 65.5631C181.788 65.2522 181.467 64.848 181.258 64.386C181.235 64.3441 181.228 64.2949 181.24 64.2484C181.252 64.2019 181.281 64.1617 181.322 64.1358C181.364 64.1113 181.414 64.1041 181.461 64.1159C181.508 64.1277 181.549 64.1576 181.574 64.1989Z" fill="white"/>
<path d="M197.547 89.0298C197.4 89.0097 197.254 88.9897 197.105 88.9718C195.133 88.712 193.144 88.6116 191.156 88.6717C191.002 88.674 190.846 88.6785 190.693 88.6851C185.905 88.8806 181.196 89.9571 176.804 91.8597C175.057 92.6185 173.371 93.5081 171.76 94.5208C169.535 95.9196 167.234 97.6121 164.747 98.1825C164.489 98.2449 164.226 98.2914 163.962 98.3216L153.686 89.4864C153.672 89.4547 153.657 89.4252 153.644 89.3934L153.217 89.0592C153.297 89.0012 153.38 88.9428 153.46 88.8848C153.506 88.851 153.554 88.8191 153.6 88.7853C153.631 88.7633 153.663 88.7415 153.69 88.7199C153.7 88.7126 153.711 88.7053 153.719 88.7003C153.746 88.6787 153.773 88.6616 153.798 88.6423C154.265 88.3143 154.734 87.9889 155.207 87.6663C155.209 87.664 155.209 87.664 155.214 87.6636C158.792 85.1708 162.656 83.1083 166.725 81.5194C166.847 81.4736 166.971 81.4254 167.097 81.3837C168.929 80.7073 170.814 80.1806 172.733 79.8091C173.784 79.609 174.844 79.4619 175.91 79.3683C178.666 79.1318 181.441 79.327 184.135 79.947C189.506 81.1835 194.418 84.1119 197.328 88.6787C197.402 88.7956 197.474 88.9106 197.547 89.0298Z" fill="#E6E6E6"/>
<path d="M197.411 89.1394C191.414 85.749 184.493 84.3211 177.633 85.0586C176.153 85.1913 174.703 85.5548 173.338 86.1357C172.026 86.7443 170.902 87.6907 170.082 88.8765C169.296 89.9669 168.619 91.1727 167.58 92.0544C167.041 92.4978 166.414 92.8232 165.74 93.0091C165.065 93.195 164.359 93.2373 163.667 93.1332C161.936 92.9183 160.386 92.0986 158.899 91.2447C157.247 90.2967 155.547 89.286 153.599 89.1481C153.363 89.1314 153.402 88.7687 153.638 88.7854C157.028 89.0252 159.504 91.7157 162.695 92.5712C164.184 92.9704 165.803 92.9264 167.08 91.9834C168.197 91.1588 168.897 89.916 169.683 88.8051C170.465 87.6367 171.523 86.6762 172.765 86.0075C174.097 85.3594 175.53 84.941 177.003 84.7703C180.313 84.3335 183.671 84.4162 186.955 85.0153C190.707 85.6785 194.317 86.9741 197.629 88.846C197.834 88.962 197.614 89.2546 197.411 89.1394L197.411 89.1394Z" fill="white"/>
<path d="M179.828 84.6919C179.859 83.5321 180.305 82.4212 181.086 81.5577C181.866 80.6941 182.93 80.1341 184.088 79.9777C184.322 79.9469 184.381 80.307 184.147 80.3379C183.068 80.4816 182.077 81.0034 181.352 81.809C180.627 82.6146 180.216 83.651 180.193 84.7312C180.188 84.9659 179.822 84.9253 179.828 84.6919Z" fill="white"/>
<path d="M170.408 88.2715C172.035 90.0079 174.261 91.0716 176.643 91.2505C176.879 91.268 176.839 91.6308 176.603 91.6133C174.125 91.4225 171.811 90.3109 170.122 88.5002C169.961 88.3275 170.248 88.0997 170.408 88.2715Z" fill="white"/>
<path d="M190.439 86.0819C190.332 86.5281 190.339 86.9936 190.459 87.4366C190.578 87.8795 190.807 88.286 191.123 88.6196C191.286 88.7902 190.999 89.0178 190.837 88.8484C190.489 88.4782 190.237 88.0289 190.104 87.5398C189.971 87.0507 189.96 86.5367 190.073 86.0427C190.08 85.9952 190.105 85.9521 190.142 85.922C190.18 85.892 190.228 85.8773 190.276 85.8809C190.324 85.8864 190.368 85.9105 190.399 85.9482C190.429 85.9858 190.444 86.0339 190.439 86.0819Z" fill="white"/>
<path d="M17.0573 207.17C16.5749 208.967 15.3075 210.463 13.7771 211.553C13.5276 211.732 13.2715 211.897 13.012 212.052C12.9322 212.098 12.8523 212.148 12.7691 212.191C12.6793 212.244 12.5895 212.293 12.4997 212.339H5.30391C5.17417 212.078 5.04775 211.814 4.92134 211.553C1.83744 205.118 -0.328279 198.174 0.040991 191.102C0.187494 188.358 0.767905 185.655 1.76092 183.091C3.73701 177.98 7.34321 173.557 12.3034 171.331C12.4265 171.275 12.5562 171.218 12.6826 171.166C12.6427 171.308 12.6028 171.446 12.5629 171.588C12.0307 173.492 11.6547 175.435 11.4384 177.399C11.4185 177.551 11.4018 177.703 11.3885 177.858C10.9159 182.595 11.3356 187.377 12.6261 191.961C12.6294 191.97 12.6327 191.984 12.6361 191.994C12.9189 193.008 13.2471 194.006 13.6208 194.99C13.9135 195.766 14.2296 196.533 14.5756 197.286C16.0194 200.447 17.9555 203.817 17.0573 207.17Z" fill="#E6E6E6"/>
<path d="M12.7724 171.314C12.7025 171.407 12.6326 171.496 12.5628 171.588C11.1016 173.511 9.86084 175.59 8.86344 177.786C8.81021 177.895 8.76031 178.004 8.71706 178.116C7.35043 181.182 6.47274 184.441 6.11554 187.775C6.11168 187.798 6.10946 187.821 6.10889 187.844C6.02572 188.624 5.97582 189.41 5.95586 190.196C5.88188 191.67 6.04243 193.146 6.43158 194.57C6.78642 195.733 7.4082 196.798 8.24799 197.682C8.33116 197.771 8.41433 197.86 8.50415 197.946C8.57069 198.016 8.64387 198.085 8.71373 198.151C9.38574 198.789 10.121 199.38 10.753 200.064C11.0427 200.37 11.3044 200.702 11.5348 201.055C11.9026 201.646 12.1402 202.308 12.2319 202.997C12.3237 203.686 12.2675 204.386 12.0671 205.052C11.6147 206.723 10.58 208.134 9.52214 209.479C8.99318 210.152 8.44759 210.833 7.97519 211.553C7.80222 211.811 7.64252 212.072 7.49617 212.339H7.07699C7.21672 212.072 7.36975 211.811 7.53609 211.553C8.75035 209.654 10.4769 208.022 11.3718 205.931C11.9773 204.52 12.1603 202.921 11.3951 201.537C11.1709 201.135 10.8995 200.76 10.5867 200.421C9.97792 199.737 9.24936 199.152 8.58734 198.534C8.421 198.379 8.25799 198.22 8.10163 198.055C7.27267 197.219 6.633 196.217 6.22535 195.115C5.76369 193.716 5.54543 192.25 5.57995 190.778C5.57995 189.84 5.62986 188.895 5.72301 187.957C5.73299 187.838 5.7463 187.716 5.7596 187.593C6.43994 181.69 8.69937 176.074 12.3033 171.331C12.3699 171.238 12.4397 171.149 12.5096 171.06C12.6526 170.875 12.9154 171.132 12.7724 171.314Z" fill="white"/>
<path d="M5.89391 187.988C4.74163 187.796 3.69566 187.203 2.9428 186.316C2.18994 185.429 1.77922 184.304 1.78398 183.144C1.78461 183.097 1.80372 183.052 1.83727 183.018C1.87082 182.985 1.91619 182.965 1.96383 182.964C2.01146 182.963 2.05765 182.98 2.09264 183.013C2.12764 183.045 2.14872 183.089 2.15143 183.136C2.14499 184.217 2.52768 185.264 3.23045 186.089C3.93321 186.913 4.90974 187.462 5.9838 187.634C6.21716 187.672 6.12594 188.026 5.89391 187.988V187.988Z" fill="white"/>
<path d="M8.15564 197.748C10.1133 196.39 11.4833 194.348 11.9924 192.031C12.0427 191.801 12.3989 191.891 12.3487 192.12C11.8144 194.53 10.3843 196.652 8.34402 198.062C8.14945 198.196 7.96214 197.882 8.15565 197.748L8.15564 197.748Z" fill="white"/>
<path d="M8.75335 177.747C9.18359 177.914 9.64877 177.972 10.1071 177.915C10.5655 177.859 11.0026 177.691 11.3793 177.426C11.5721 177.289 11.7592 177.604 11.5677 177.739C11.1501 178.03 10.6671 178.216 10.1608 178.279C9.65457 178.342 9.14047 178.281 8.66346 178.101C8.61706 178.088 8.57747 178.057 8.55273 178.016C8.52799 177.975 8.51995 177.926 8.53026 177.879C8.5424 177.832 8.57264 177.792 8.61442 177.768C8.65619 177.743 8.70612 177.735 8.75335 177.747Z" fill="white"/>
<path d="M37.7298 184.089C37.6134 184.178 37.4936 184.267 37.3772 184.359C35.7977 185.56 34.3191 186.885 32.9559 188.323C32.8495 188.433 32.743 188.545 32.6399 188.657L32.6365 188.66C29.4043 192.145 26.8485 196.192 25.0981 200.599L25.0881 200.629C25.0848 200.639 25.0815 200.645 25.0782 200.655C24.3844 202.419 23.825 204.232 23.4048 206.079C22.9989 207.883 22.6663 209.816 22.0309 211.553C21.9344 211.821 21.8279 212.085 21.7148 212.339H6.92407C6.97397 212.078 7.0272 211.814 7.08043 211.553C7.83283 207.725 9.00875 203.992 10.5868 200.421C10.6401 200.302 10.6933 200.183 10.7532 200.064C11.5678 198.299 12.5258 196.603 13.6175 194.993C13.6175 194.993 13.6176 194.992 13.6177 194.992C13.6179 194.991 13.6181 194.991 13.6185 194.991C13.6188 194.99 13.6191 194.99 13.6195 194.99C13.62 194.99 13.6204 194.99 13.6208 194.99C14.2203 194.111 14.8643 193.263 15.5503 192.449C17.3296 190.347 19.4312 188.537 21.778 187.085C21.7913 187.075 21.808 187.068 21.8213 187.058C26.492 184.181 32.0278 182.81 37.3206 183.996H37.3239C37.4603 184.026 37.5934 184.055 37.7298 184.089Z" fill="#E6E6E6"/>
<path d="M37.713 184.264C37.5999 184.293 37.4868 184.326 37.377 184.359C35.0455 185.021 32.7951 185.937 30.667 187.091C30.5605 187.147 30.4541 187.207 30.3476 187.266C27.4066 188.896 24.737 190.968 22.4333 193.407C22.4314 193.409 22.4303 193.412 22.4299 193.414C22.4033 193.44 22.3734 193.47 22.3501 193.497C21.8178 194.065 21.3055 194.656 20.8198 195.264C19.8697 196.397 19.1041 197.671 18.5509 199.04C18.1282 200.18 17.979 201.403 18.1151 202.611C18.1251 202.733 18.1417 202.852 18.1584 202.974C18.1717 203.07 18.185 203.166 18.2016 203.265C18.4212 204.589 18.8004 205.917 18.694 207.269C18.6292 207.961 18.4176 208.632 18.073 209.237C17.7284 209.842 17.2586 210.368 16.6946 210.78C16.3112 211.074 15.9014 211.333 15.4704 211.553C14.8541 211.869 14.2119 212.132 13.5508 212.339H12.2434C12.4197 212.29 12.5927 212.24 12.769 212.191C13.3947 212.015 14.0091 211.802 14.6087 211.553C14.9513 211.411 15.2846 211.248 15.6068 211.064C16.9441 210.301 18.0586 209.132 18.2914 207.569C18.4944 206.202 18.1018 204.834 17.8689 203.496C17.829 203.265 17.7924 203.037 17.7725 202.809C17.6136 201.65 17.7101 200.471 18.0552 199.354C18.5339 197.959 19.2495 196.656 20.1711 195.502C20.7411 194.75 21.3496 194.028 21.9941 193.338C22.074 193.249 22.1571 193.16 22.2436 193.07C24.5958 190.613 27.3118 188.527 30.2977 186.883H30.301C32.5212 185.656 34.8766 184.687 37.3205 183.996H37.3238C37.4336 183.963 37.5467 183.93 37.6565 183.9C37.886 183.841 37.9392 184.201 37.713 184.264Z" fill="white"/>
<path d="M22.1121 193.463C21.3086 192.621 20.8328 191.523 20.7697 190.364C20.7065 189.206 21.0602 188.062 21.7674 187.139C21.9112 186.953 22.2096 187.166 22.0657 187.352C21.4055 188.211 21.0761 189.276 21.1372 190.355C21.1982 191.433 21.6455 192.455 22.3984 193.235C22.5618 193.404 22.2746 193.632 22.1121 193.463H22.1121Z" fill="white"/>
<path d="M18.0001 202.609C20.3871 202.694 22.7188 201.883 24.5303 200.337C24.7096 200.184 24.9398 200.469 24.7606 200.622C22.8725 202.227 20.4443 203.066 17.9606 202.972C17.7238 202.962 17.7647 202.6 18.0001 202.609Z" fill="white"/>
<path d="M30.6048 186.996C30.8473 187.386 31.1836 187.711 31.5835 187.94C31.9835 188.169 32.4345 188.296 32.8961 188.31C33.1328 188.316 33.0917 188.678 32.8565 188.672C32.3466 188.655 31.8487 188.514 31.4062 188.262C30.9638 188.009 30.5904 187.653 30.3185 187.225C30.2895 187.186 30.2762 187.139 30.2814 187.091C30.2866 187.043 30.3098 186.999 30.3465 186.968C30.3845 186.938 30.433 186.924 30.4814 186.929C30.5297 186.934 30.5741 186.958 30.6048 186.996Z" fill="white"/>
<path d="M151.827 57.192C151.486 57.6379 151.05 58.0041 150.551 58.2648C150.051 58.5254 149.5 58.6742 148.937 58.7005C148.373 58.7269 147.811 58.6303 147.289 58.4175C146.767 58.2046 146.299 57.8808 145.917 57.4687L133.341 62.8995L134.566 55.9288L146.32 51.8403C147.06 51.2486 147.992 50.947 148.941 50.9925C149.89 51.038 150.789 51.4276 151.467 52.0872C152.146 52.7469 152.558 53.6309 152.624 54.5718C152.69 55.5126 152.407 56.4449 151.827 57.192Z" fill="#FFB8B8"/>
<path d="M143.435 59.3685L114.227 72.2876L114.165 72.2654L80.8749 60.4857C78.3953 59.1989 76.5048 57.0195 75.5906 54.3937C74.6764 51.768 74.8076 48.8945 75.9574 46.3617C76.5947 44.9623 77.5233 43.7128 78.682 42.6954C79.8407 41.6781 81.2032 40.9159 82.6799 40.4592C84.1566 40.0024 85.714 39.8614 87.2496 40.0454C88.7851 40.2294 90.264 40.7342 91.5889 41.5266L116.363 56.3455L140.386 53.2539L143.435 59.3685Z" fill="#E6E6E6"/>
<path d="M287 212.607C287 212.659 286.99 212.71 286.97 212.758C286.951 212.805 286.921 212.849 286.885 212.885C286.848 212.922 286.804 212.951 286.756 212.97C286.708 212.99 286.656 213 286.604 213H0.40711C0.302115 213 0.201424 212.959 0.127182 212.885C0.052939 212.811 0.0112305 212.711 0.0112305 212.607C0.0112305 212.503 0.052939 212.403 0.127182 212.329C0.201424 212.255 0.302115 212.214 0.40711 212.214H286.604C286.656 212.214 286.708 212.224 286.756 212.243C286.804 212.263 286.848 212.292 286.885 212.329C286.921 212.365 286.951 212.409 286.97 212.456C286.99 212.504 287 212.555 287 212.607Z" fill="#CCCCCC"/>
<path d="M104.242 98.0443L74.7978 93.3678C74.0256 93.1222 73.3161 92.7135 72.7179 92.17C72.1197 91.6264 71.6471 90.9607 71.3325 90.2186C71.0178 89.4765 70.8686 88.6756 70.8951 87.8709C70.9216 87.0661 71.1231 86.2766 71.4859 85.5565L72.8211 82.9044L72.3025 55.0411C72.2399 51.4168 73.1398 47.84 74.9114 44.6706C76.683 41.5012 79.264 38.851 82.3946 36.9867L85.2659 35.2819L86.717 31.6228L100.097 31.9469L100.136 36.7459L104.928 44.3333L104.928 44.3647L104.627 85.662L103.307 89.9239L105.303 94.8809L104.242 98.0443Z" fill="#E6E6E6"/>
<path d="M94.6324 27.0728C101.347 27.0728 106.79 21.668 106.79 15.0008C106.79 8.33356 101.347 2.92871 94.6324 2.92871C87.9181 2.92871 82.4751 8.33356 82.4751 15.0008C82.4751 21.668 87.9181 27.0728 94.6324 27.0728Z" fill="#FFB8B8"/>
<path d="M81.9731 17.6326C81.6105 16.1157 81.7769 13.9812 81.9819 12.4538C82.5191 8.44967 84.7585 4.64299 88.1608 2.38816C88.8058 1.90162 89.5724 1.59912 90.3779 1.51326C91.1827 1.4799 92.0552 1.90775 92.3023 2.66913C92.5051 2.16662 92.8094 1.7107 93.1965 1.32952C93.5836 0.948338 94.0453 0.64998 94.553 0.452864C95.573 0.0648299 96.6699 -0.0819155 97.7569 0.0242603C99.8638 0.196712 101.884 0.932358 103.604 2.15313C105.324 3.37389 106.679 5.03424 107.525 6.95797C107.85 7.72397 108.757 4.89458 109.168 5.61834C109.547 6.37064 110.206 6.94612 111.006 7.22163C111.812 7.445 112.14 10.7432 112.457 9.97411C112.703 10.5425 112.8 11.1635 112.74 11.7792C112.679 12.395 112.463 12.9855 112.11 13.4958C111.758 14.006 111.281 14.4195 110.725 14.6976C110.168 14.9757 109.55 15.1094 108.927 15.0862C108.107 15.0558 107.322 14.7561 106.511 14.6271C103.612 14.1658 100.536 16.2534 99.9165 19.1034C99.6946 18.2792 99.3401 17.496 98.8667 16.7841C98.6264 16.43 98.3044 16.138 97.9275 15.9323C97.5507 15.7267 97.1298 15.6134 96.6999 15.6019C95.875 15.6325 95.15 16.1681 94.6148 16.7921C94.0795 17.4161 93.6776 18.1442 93.1384 18.7648C91.5564 20.586 89.4166 24.8331 87.162 24.5234C85.3828 24.2789 82.4682 19.7037 81.9731 17.6326Z" fill="#2F2E41"/>
<path d="M168.122 70.8719C168.207 70.3215 168.093 69.759 167.801 69.2841C167.508 68.8092 167.055 68.4526 166.523 68.2775L133.783 57.4498C133.469 57.3456 133.137 57.3077 132.808 57.3386L124.601 58.1091L119.893 58.5526L111.204 59.368C110.679 59.4179 110.186 59.6392 109.802 59.9973C109.417 60.3554 109.164 60.83 109.08 61.3467L104.668 88.7115C104.585 89.2452 104.687 89.7913 104.959 90.2595C105.23 90.7277 105.654 91.0901 106.16 91.2868L139.242 103.967C139.397 104.027 139.558 104.07 139.723 104.095C139.962 104.134 140.207 104.135 140.447 104.101L161.823 100.954C162.327 100.882 162.794 100.65 163.155 100.293C163.516 99.9361 163.752 99.4731 163.827 98.9727L168.122 70.8719Z" fill="white"/>
<path d="M106.91 89.3585L139.991 102.038C140.04 102.057 140.092 102.063 140.143 102.056L161.517 98.91C161.58 98.9014 161.639 98.8724 161.684 98.8276C161.73 98.7828 161.759 98.7246 161.768 98.6617L166.066 70.5605C166.076 70.4919 166.061 70.4221 166.025 70.3629C165.989 70.3038 165.933 70.259 165.867 70.2363L165.647 70.1623L133.125 59.4111C133.11 59.4058 133.095 59.4022 133.079 59.4001C133.054 59.3955 133.028 59.3942 133.003 59.3962L112.988 61.2769L111.399 61.4248C111.334 61.4318 111.273 61.4596 111.225 61.5042C111.178 61.5488 111.146 61.6077 111.135 61.6719L106.724 89.0356C106.713 89.1024 106.726 89.1709 106.76 89.2297C106.794 89.2884 106.847 89.3339 106.91 89.3585Z" fill="#F56D00"/>
<path d="M112.988 61.2769L133.003 59.3962C133.029 59.3942 133.054 59.3955 133.079 59.4001C133.095 59.4022 133.11 59.4058 133.125 59.4111L165.647 70.1623L157.068 71.064L153.858 71.3999L144.722 72.3583C144.696 72.3596 144.669 72.3593 144.642 72.3573C144.626 72.3525 144.61 72.3476 144.59 72.3424L112.988 61.2769Z" fill="#2F2E41"/>
<path d="M106.16 91.2884L139.241 103.968C139.397 104.027 139.559 104.069 139.724 104.093C139.963 104.132 140.207 104.136 140.448 104.102L161.821 100.957C162.326 100.884 162.793 100.651 163.154 100.294C163.516 99.937 163.751 99.4738 163.827 98.9732L168.122 70.8718C168.185 70.4575 168.137 70.0339 167.982 69.644C167.961 69.5921 167.939 69.5403 167.914 69.4915C167.743 69.1355 167.484 68.8287 167.16 68.6003C166.966 68.4614 166.751 68.3527 166.523 68.2777L166.484 68.2641L133.785 57.4495C133.652 57.4072 133.515 57.3742 133.377 57.351C133.188 57.3244 132.996 57.3207 132.806 57.34L124.602 58.108L119.894 58.5539L111.203 59.3687C110.847 59.4017 110.504 59.5143 110.199 59.6982C110.175 59.7095 110.153 59.723 110.131 59.7383C110.116 59.7481 110.102 59.7589 110.088 59.7707C109.822 59.9514 109.595 60.1841 109.422 60.4546C109.249 60.7252 109.133 61.0279 109.081 61.3443L104.667 88.711C104.583 89.2452 104.686 89.7917 104.957 90.2602C105.229 90.7288 105.653 91.0915 106.16 91.2884ZM109.667 61.4397C109.721 61.1117 109.867 60.8056 110.089 60.5573C110.157 60.4774 110.232 60.4044 110.314 60.3397C110.539 60.1595 110.804 60.0365 111.087 59.9816C111.143 59.9701 111.2 59.9622 111.257 59.9578L125.889 58.5852L132.864 57.9262C132.911 57.9207 132.954 57.9215 132.998 57.919C133.104 57.9168 133.209 57.9246 133.313 57.9423C133.409 57.9546 133.503 57.9769 133.594 58.0088L166.332 68.837C166.358 68.8461 166.381 68.8548 166.407 68.8639C166.704 68.9739 166.966 69.1629 167.163 69.4102C167.318 69.5996 167.432 69.8195 167.496 70.0554C167.561 70.2914 167.574 70.5382 167.536 70.7796L163.237 98.8841C163.181 99.2589 163.005 99.6058 162.735 99.8735C162.464 100.141 162.115 100.316 161.737 100.371L140.361 103.516C140.055 103.56 139.743 103.525 139.455 103.414L106.373 90.7379C105.994 90.5895 105.677 90.3176 105.474 89.9667C105.271 89.6158 105.194 89.2067 105.256 88.8067L109.667 61.4397Z" fill="#3F3D56"/>
<path d="M110.017 59.9199C110.034 59.8701 110.065 59.826 110.106 59.7924C110.12 59.7816 110.134 59.7719 110.149 59.7632C110.163 59.7579 110.177 59.7493 110.191 59.744C110.257 59.7175 110.331 59.7162 110.398 59.7405L111.087 59.9817L144.726 71.7648L152.599 70.9388L157.004 70.4774L166.329 69.4971L167.163 69.4103L167.325 69.3925C167.395 69.3862 167.465 69.4043 167.522 69.4437C167.58 69.4831 167.622 69.5414 167.642 69.6084C167.646 69.6238 167.649 69.6397 167.65 69.6557C167.657 69.7193 167.643 69.7834 167.61 69.8383C167.577 69.8932 167.527 69.936 167.467 69.9602C167.441 69.9711 167.413 69.9785 167.385 69.9823L166.251 70.1003L157.068 71.0642L153.858 71.4L144.722 72.3584C144.695 72.3598 144.669 72.3594 144.642 72.3575C144.626 72.3526 144.61 72.3477 144.59 72.3426L110.314 60.3397L110.198 60.2988C110.171 60.2901 110.146 60.2765 110.125 60.2587C110.073 60.2209 110.034 60.1677 110.015 60.1068C109.996 60.0459 109.996 59.9805 110.017 59.9199Z" fill="#3F3D56"/>
<path d="M139.814 104.179C139.736 104.167 139.667 104.125 139.621 104.062C139.574 103.999 139.555 103.921 139.567 103.844L144.396 72.0205C144.408 71.9431 144.45 71.8735 144.513 71.827C144.577 71.7805 144.656 71.7609 144.734 71.7726L144.737 71.773C144.814 71.7853 144.884 71.8275 144.93 71.8903C144.976 71.9531 144.996 72.0316 144.984 72.1085L140.155 103.932C140.143 104.009 140.101 104.079 140.037 104.125C139.974 104.172 139.894 104.191 139.816 104.18L139.814 104.179Z" fill="#3F3D56"/>
<path d="M152.055 102.161L148.843 102.497L152.6 70.938C152.6 70.938 156.89 70.1667 157.005 70.476C157.075 70.6606 152.086 101.958 152.055 102.161Z" fill="#3F3D56"/>
<path d="M110.199 60.2983L110.112 74.6904L135.77 84.3985L144.984 72.1084L110.199 60.2983Z" fill="#3F3D56"/>
<path d="M167.164 69.4108C166.949 69.1431 166.661 68.9436 166.333 68.8371L133.596 58.0093C133.504 57.9785 133.41 57.9557 133.314 57.941C133.209 57.9232 133.103 57.9153 132.998 57.9175L133.051 57.588L133.378 57.3524L141.152 51.7634L167.115 59.6642L167.16 68.6005L167.164 69.4108Z" fill="#3F3D56"/>
<path d="M111.506 83.4023C111.543 83.4059 111.58 83.4135 111.615 83.425L121.659 86.7009C121.785 86.7419 121.889 86.8308 121.949 86.9481C122.009 87.0654 122.019 87.2014 121.978 87.3263C121.937 87.4512 121.847 87.5546 121.729 87.614C121.611 87.6733 121.474 87.6836 121.348 87.6426L111.304 84.3667C111.187 84.3286 111.088 84.2492 111.027 84.1437C110.966 84.0381 110.946 83.9138 110.971 83.7945C110.996 83.6752 111.064 83.5692 111.163 83.4969C111.262 83.4245 111.384 83.3909 111.506 83.4023H111.506Z" fill="white"/>
<path d="M152.034 143.777C154.238 143.777 156.026 142.002 156.026 139.813C156.026 137.623 154.238 135.849 152.034 135.849C149.829 135.849 148.042 137.623 148.042 139.813C148.042 142.002 149.829 143.777 152.034 143.777Z" fill="#F2F2F2"/>
<path d="M50.235 158.312C52.4398 158.312 54.2271 156.537 54.2271 154.348C54.2271 152.158 52.4398 150.384 50.235 150.384C48.0302 150.384 46.2429 152.158 46.2429 154.348C46.2429 156.537 48.0302 158.312 50.235 158.312Z" fill="#F2F2F2"/>
<path d="M133.404 27.166C135.609 27.166 137.396 25.3912 137.396 23.2019C137.396 21.0126 135.609 19.2378 133.404 19.2378C131.199 19.2378 129.412 21.0126 129.412 23.2019C129.412 25.3912 131.199 27.166 133.404 27.166Z" fill="#F2F2F2"/>
<path d="M139.954 89.2326C139.436 89.4558 138.876 89.5637 138.312 89.5485C137.748 89.5334 137.194 89.3957 136.69 89.1451C136.185 88.8945 135.742 88.5371 135.392 88.0981C135.041 87.659 134.792 87.149 134.662 86.604L121.018 85.2353L125.519 79.7495L137.785 81.8903C138.722 81.7335 139.684 81.9232 140.489 82.4235C141.294 82.9239 141.886 83.7001 142.154 84.6052C142.421 85.5102 142.345 86.4811 141.939 87.334C141.534 88.1868 140.827 88.8624 139.954 89.2326Z" fill="#FFB8B8"/>
<path d="M131.562 87.0564L99.7221 84.1433L99.6784 84.0935L76.4409 57.654C74.9116 55.3275 74.3358 52.5085 74.8314 49.7742C75.327 47.0399 76.8564 44.5971 79.1067 42.9461C80.3517 42.0348 81.777 41.3958 83.2887 41.071C84.8004 40.7462 86.3642 40.7429 87.8773 41.0615C89.3903 41.3801 90.8182 42.0133 92.0671 42.9194C93.3159 43.8255 94.3574 44.984 95.1228 46.3185L109.435 71.274L131.913 80.2418L131.562 87.0564Z" fill="#E6E6E6"/>
<path d="M211.478 36.2109C210.687 30.4518 209.696 24.2685 205.605 20.1111C204.307 18.7919 202.754 17.7474 201.038 17.0406C199.323 16.3338 197.481 15.9792 195.624 15.9983C193.766 16.0174 191.932 16.4097 190.232 17.1517C188.532 17.8936 187 18.9698 185.73 20.3153C182.752 23.4697 181.437 27.8989 181.317 32.2208C181.196 36.5427 182.166 40.8166 183.241 45.0062C188.932 45.1191 194.58 44.0151 199.804 41.7691C201.11 41.2061 202.395 40.5697 203.775 40.221C205.155 39.8722 206.138 40.7498 207.422 41.3618L208.126 40.0221C208.703 41.0879 210.489 40.772 211.137 39.7471C211.785 38.7223 211.643 37.4098 211.478 36.2109Z" fill="#2F2E41"/>
<path d="M188.921 68.3563L165.675 68.8499C165.318 68.2372 164.789 67.7406 164.153 67.4208C163.517 67.1009 162.801 66.9714 162.093 67.0482C161.384 67.125 160.713 67.4046 160.162 67.8531C159.61 68.3016 159.202 68.8996 158.986 69.5744C158.771 70.2491 158.757 70.9716 158.948 71.6538C159.138 72.3359 159.524 72.9485 160.059 73.4168C160.593 73.8851 161.253 74.1891 161.959 74.2917C162.664 74.3943 163.384 74.2911 164.032 73.9946C167.115 74.1686 191.235 77.568 192.674 75.3773C194.135 73.1537 201.931 65.3064 201.931 65.3064L195.938 56.8352L188.921 68.3563Z" fill="#9E616A"/>
<path d="M194.585 41.9091C200.617 41.9091 205.507 37.0535 205.507 31.0639C205.507 25.0743 200.617 20.2188 194.585 20.2188C188.553 20.2188 183.664 25.0743 183.664 31.0639C183.664 37.0535 188.553 41.9091 194.585 41.9091Z" fill="#9E616A"/>
<path d="M212.078 51.9311C210.791 49.3876 210.166 46.2453 207.422 45.4207C205.569 44.8638 198.075 45.6983 196.386 46.6383C193.577 48.2018 196.123 51.1317 194.466 53.8735C192.664 56.8541 187.768 62.8356 185.967 65.8161C184.728 67.8652 188.9 73.8796 188.23 76.175C187.561 78.4704 187.528 81.0467 188.669 83.1509C189.69 85.0343 188.213 86.7005 189.24 88.5808C190.307 90.5363 191.618 97.8478 190.624 99.8414L189.959 101.823C196.561 102.209 202.113 94.3761 208.674 93.5511C210.304 93.3462 211.996 93.0785 213.339 92.1391C215.318 90.7554 216.1 88.2446 216.588 85.8914C218.941 74.3886 217.353 62.4352 212.078 51.9311Z" fill="#3F3D56"/>
<path d="M221.977 78.7884C221.058 76.2957 219.393 65.3974 219.393 65.3974L208.972 65.094L214.067 77.5717L200.164 96.8976C200.164 96.8976 200.19 96.9401 200.237 97.0158C199.506 96.8994 198.756 97.0047 198.087 97.3181C197.417 97.6315 196.858 98.1383 196.484 98.7722C196.109 99.4062 195.935 100.138 195.986 100.871C196.037 101.604 196.31 102.306 196.768 102.883C197.227 103.46 197.85 103.886 198.557 104.105C199.263 104.325 200.02 104.327 200.728 104.112C201.436 103.898 202.062 103.476 202.525 102.902C202.987 102.328 203.265 101.629 203.321 100.896C203.372 100.925 203.432 100.935 203.49 100.925C203.548 100.915 203.601 100.886 203.639 100.841C205.186 98.9137 222.897 81.281 221.977 78.7884Z" fill="#9E616A"/>
<path d="M223.037 71.9058C222.08 67.8971 221.117 63.8667 219.504 60.071C217.891 56.2754 215.583 52.6903 212.336 50.1259C211.298 49.3061 210.137 48.5825 208.836 48.3276C207.535 48.0727 206.068 48.358 205.154 49.3125C203.692 50.8398 204.132 53.2915 204.668 55.3306C206.25 61.343 207.832 67.3553 209.413 73.3677C213.981 72.8869 218.548 72.4062 223.115 71.9254L223.037 71.9058Z" fill="#3F3D56"/>
<path d="M207.968 32.5681C207.566 29.9445 207.146 27.299 206.201 24.8286C205.256 22.3583 203.733 20.0444 201.548 18.645C198.088 16.4294 193.61 16.8567 189.731 18.1312C186.732 19.1168 183.804 20.6149 181.688 23.0233C179.573 25.4318 178.385 28.8683 179.172 32.0174C183.309 31.0468 187.446 30.0762 191.584 29.1055L191.131 29.4233C192.489 30.0959 193.675 31.067 194.6 32.2629C195.524 33.4588 196.161 34.848 196.464 36.3251C196.76 37.8201 196.717 39.3617 196.339 40.8384C195.962 42.3152 195.258 43.69 194.28 44.8636C197.101 43.8697 199.923 42.8758 202.744 41.8819C204.486 41.2684 206.35 40.5615 207.383 38.9879C208.58 37.1635 208.302 34.7453 207.968 32.5681Z" fill="#2F2E41"/>
</g>
<defs>
<clipPath id="clip0_355_6">
<rect width="287" height="213" fill="white"/>
</clipPath>
</defs>
</svg>
