<svg width="226" height="188" viewBox="0 0 226 188" fill="none" xmlns="http://www.w3.org/2000/svg">
<g clip-path="url(#clip0_328_35)">
<path d="M90.434 38.9869H89.6096V14.2925C89.6096 12.4156 89.2715 10.557 88.6145 8.82298C87.9576 7.08894 86.9947 5.51335 85.7809 4.18617C84.567 2.85899 83.1259 1.80622 81.54 1.08795C79.954 0.369689 78.2542 1.59027e-06 76.5375 0H28.6863C25.2194 -7.22617e-06 21.8945 1.50579 19.443 4.18614C16.9915 6.86649 15.6143 10.5018 15.6143 14.2924V149.768C15.6143 151.645 15.9524 153.503 16.6093 155.237C17.2662 156.971 18.2291 158.547 19.443 159.874C20.6568 161.201 22.0979 162.254 23.6839 162.972C25.2698 163.691 26.9697 164.06 28.6863 164.06H76.5374C80.0044 164.06 83.3293 162.555 85.7808 159.874C88.2323 157.194 89.6095 153.559 89.6096 149.768V56.5648H90.434V38.9869Z" fill="#3F3D56"/>
<path d="M77.0649 3.7184H70.8187C71.1059 4.48838 71.2156 5.32377 71.138 6.151C71.0604 6.97822 70.7979 7.77189 70.3737 8.46207C69.9494 9.15225 69.3765 9.71777 68.7053 10.1088C68.034 10.4999 67.2852 10.7044 66.5246 10.7045H39.1113C38.3507 10.7044 37.6019 10.4999 36.9306 10.1088C36.2594 9.71778 35.6865 9.15226 35.2622 8.46207C34.838 7.77189 34.5755 6.97823 34.4979 6.151C34.4203 5.32378 34.53 4.48838 34.8172 3.7184H28.9833C27.7013 3.7184 26.4319 3.99448 25.2475 4.53087C24.0631 5.06725 22.9869 5.85345 22.0804 6.84457C21.1739 7.83569 20.4549 9.01233 19.9643 10.3073C19.4737 11.6022 19.2212 12.9902 19.2212 14.3918V149.669C19.2212 151.07 19.4737 152.458 19.9643 153.753C20.4549 155.048 21.1739 156.225 22.0804 157.216C22.9869 158.207 24.0631 158.993 25.2475 159.53C26.4319 160.066 27.7013 160.342 28.9833 160.342H77.0649C78.3468 160.342 79.6162 160.066 80.8006 159.53C81.985 158.993 83.0612 158.207 83.9677 157.216C84.8742 156.225 85.5932 155.048 86.0838 153.753C86.5744 152.458 86.8269 151.07 86.8269 149.669V14.3918C86.8269 12.9902 86.5744 11.6022 86.0838 10.3073C85.5932 9.01233 84.8742 7.83569 83.9677 6.84457C83.0612 5.85345 81.985 5.06725 80.8006 4.53087C79.6162 3.99448 78.3468 3.7184 77.0649 3.7184Z" fill="white"/>
<path d="M105.771 164.084H0.276888C0.203452 164.084 0.133025 164.052 0.0810983 163.995C0.0291718 163.938 0 163.861 0 163.781C0 163.701 0.0291718 163.624 0.0810983 163.567C0.133025 163.51 0.203452 163.478 0.276888 163.478H105.771C105.845 163.478 105.915 163.51 105.967 163.567C106.019 163.624 106.048 163.701 106.048 163.781C106.048 163.861 106.019 163.938 105.967 163.995C105.915 164.052 105.845 164.084 105.771 164.084Z" fill="#CBCBCB"/>
<path d="M53.0242 104.65C65.9378 104.65 76.4063 93.2044 76.4063 79.0852C76.4063 64.966 65.9378 53.5202 53.0242 53.5202C40.1106 53.5202 29.6421 64.966 29.6421 79.0852C29.6421 93.2044 40.1106 104.65 53.0242 104.65Z" fill="#F56D00"/>
<path d="M50.7069 88.8375C50.1809 88.8385 49.6688 88.6524 49.248 88.3074L49.2219 88.286L43.7267 83.6899C43.4722 83.4766 43.2587 83.2106 43.0982 82.907C42.9377 82.6034 42.8335 82.2683 42.7915 81.9207C42.7495 81.5731 42.7706 81.2198 42.8534 80.8811C42.9363 80.5424 43.0794 80.2248 43.2745 79.9466C43.4696 79.6683 43.7129 79.4348 43.9906 79.2593C44.2682 79.0839 44.5748 78.97 44.8927 78.9241C45.2106 78.8781 45.5337 78.9011 45.8435 78.9917C46.1533 79.0823 46.4437 79.2388 46.6983 79.4521L50.2575 82.4363L58.6683 70.4391C58.8634 70.161 59.1066 69.9276 59.3841 69.7522C59.6617 69.5768 59.9681 69.4629 60.2859 69.4171C60.6037 69.3712 60.9266 69.3942 61.2363 69.4847C61.5459 69.5753 61.8363 69.7317 62.0907 69.9449L62.0914 69.9455L62.0392 70.0247L62.0928 69.9455C62.606 70.3767 62.9418 71.013 63.0265 71.7147C63.1111 72.4163 62.9377 73.126 62.5443 73.6881L52.6514 87.7931C52.4225 88.1181 52.1282 88.3811 51.7914 88.5617C51.4545 88.7422 51.0842 88.8355 50.709 88.8343L50.7069 88.8375Z" fill="white"/>
<path d="M192.228 166.596C192.512 166.094 192.847 165.627 193.226 165.205C193.383 165.028 193.547 164.861 193.717 164.699C194.751 163.692 196.012 163.006 197.369 162.709C198.726 162.412 200.131 162.515 201.439 163.009C202.748 163.502 203.912 164.368 204.813 165.516C205.714 166.665 206.319 168.055 206.566 169.545C207.708 164.927 204.735 160.379 201.746 156.885C198.756 153.393 195.338 149.562 195.355 144.776C195.364 142.114 196.555 139.738 198.354 137.977C198.409 137.923 198.465 137.87 198.521 137.819C200.695 135.781 203.492 134.715 206.354 134.834C211.67 135.146 216.311 139.052 219.535 143.686C224.724 151.141 226.997 161.607 223.365 170.094C220.17 177.558 213.356 181.991 206.401 185.554C205.43 186.052 204.461 186.535 203.494 187.002C203.487 187.004 203.48 187.009 203.474 187.011C203.427 187.033 203.381 187.056 203.337 187.079C203.138 187.175 202.938 187.271 202.74 187.366L202.832 187.432L203.118 187.634C203.018 187.569 202.92 187.505 202.821 187.439C202.792 187.42 202.761 187.401 202.731 187.381C199.316 185.14 195.852 182.77 193.493 179.271C191.045 175.639 190.062 170.436 192.228 166.596Z" fill="#F1F1F1"/>
<path d="M215.017 158.161C215.773 160.042 216.275 162.034 216.505 164.074C216.687 165.892 216.618 167.73 216.303 169.527C215.625 173.218 214.145 176.678 211.99 179.615C210.363 181.844 208.486 183.84 206.402 185.554C205.43 186.052 204.461 186.535 203.494 187.002C203.488 187.004 203.481 187.009 203.474 187.011C203.428 187.033 203.381 187.056 203.337 187.079C203.138 187.175 202.938 187.271 202.74 187.366L202.832 187.432L203.118 187.634C203.019 187.569 202.921 187.505 202.822 187.439C202.792 187.42 202.761 187.401 202.732 187.381C203.483 184.506 203.594 181.476 203.054 178.545C202.514 175.614 201.339 172.867 199.628 170.535C197.908 168.232 195.715 166.405 193.227 165.205C193.383 165.028 193.548 164.861 193.718 164.699C194.676 165.18 195.594 165.753 196.46 166.411C199.558 168.751 201.884 172.121 203.094 176.019C204.174 179.556 204.309 183.357 203.483 186.975C203.654 186.852 203.826 186.727 203.994 186.601C207.176 184.255 210.108 181.438 212.317 177.982C214.222 175.062 215.441 171.674 215.867 168.118C216.291 164.232 215.401 160.412 213.815 156.945C212.063 153.236 209.855 149.807 207.254 146.752C204.64 143.613 201.686 140.835 198.455 138.481C198.383 138.427 198.331 138.345 198.313 138.251C198.294 138.157 198.308 138.059 198.354 137.977C198.389 137.902 198.449 137.845 198.522 137.819C198.558 137.808 198.597 137.807 198.634 137.816C198.672 137.824 198.707 137.841 198.737 137.867C199.136 138.158 199.532 138.451 199.922 138.753C203.175 141.272 206.13 144.223 208.718 147.537C211.218 150.733 213.494 154.283 215.017 158.161Z" fill="white"/>
<path d="M145.378 11.8705C148.12 11.8705 150.344 9.43971 150.344 6.44118C150.344 3.44266 148.12 1.01187 145.378 1.01187C142.635 1.01187 140.412 3.44266 140.412 6.44118C140.412 9.43971 142.635 11.8705 145.378 11.8705Z" fill="#F1F1F1"/>
<path d="M207.124 84.5275C208.796 84.5275 210.151 83.0455 210.151 81.2173C210.151 79.3892 208.796 77.9072 207.124 77.9072C205.452 77.9072 204.096 79.3892 204.096 81.2173C204.096 83.0455 205.452 84.5275 207.124 84.5275Z" fill="#F1F1F1"/>
<path d="M118.52 93.6096C120.192 93.6096 121.547 92.1276 121.547 90.2995C121.547 88.4713 120.192 86.9893 118.52 86.9893C116.848 86.9893 115.492 88.4713 115.492 90.2995C115.492 92.1276 116.848 93.6096 118.52 93.6096Z" fill="#F1F1F1"/>
<path d="M120.229 188H225.723C225.797 188 225.867 187.968 225.919 187.911C225.971 187.855 226 187.778 226 187.697C226 187.617 225.971 187.54 225.919 187.483C225.867 187.426 225.797 187.395 225.723 187.395H120.229C120.156 187.395 120.085 187.426 120.033 187.483C119.981 187.54 119.952 187.617 119.952 187.697C119.952 187.778 119.981 187.855 120.033 187.911C120.085 187.968 120.156 188 120.229 188Z" fill="#CBCBCB"/>
<path d="M214.081 29.255C214.22 28.1797 213.993 27.0862 213.443 26.1818C212.893 25.2773 212.06 24.6246 211.099 24.3475C210.139 24.0704 209.119 24.188 208.233 24.6782C207.346 25.1683 206.655 25.9969 206.291 27.0068L197.73 37.7372L200.242 45.4076L208.851 32.8696C209.413 33.0664 210.007 33.1261 210.592 33.0445C211.178 32.9629 211.739 32.742 212.238 32.3974C212.737 32.0528 213.16 31.5928 213.479 31.0499C213.797 30.507 214.003 29.8943 214.081 29.255Z" fill="#FFB7B7"/>
<path d="M178.596 71.0068L207.013 37.8482L203.18 31.1856L167.538 64.1428L178.596 71.0068Z" fill="#3F3D56"/>
<path d="M172.254 50.8599C177.759 50.8599 182.222 45.9805 182.222 39.9614C182.222 33.9423 177.759 29.0628 172.254 29.0628C166.749 29.0628 162.286 33.9423 162.286 39.9614C162.286 45.9805 166.749 50.8599 172.254 50.8599Z" fill="#2F2E41"/>
<path d="M173.055 33.8046C175.2 31.4265 177.796 29.5913 180.659 28.4283C182.498 27.6837 184.498 27.2237 186.42 27.6465C188.342 28.0694 190.159 29.5229 190.695 31.5845C191.134 33.2702 190.681 35.0853 190.001 36.6721C189.32 38.259 188.412 39.7305 187.862 41.3766C187.3 43.0562 187.132 44.8625 187.371 46.6316C187.61 48.4006 188.249 50.0763 189.231 51.5067C190.212 52.937 191.505 54.0766 192.992 54.8221C194.478 55.5676 196.112 55.8953 197.744 55.7755C195.855 56.0523 194.115 57.0225 192.269 57.5389C190.424 58.0553 188.245 58.0203 186.874 56.5746C185.423 55.0451 185.394 52.5582 185.464 50.3557C185.568 47.0816 185.672 43.8075 185.777 40.5334C185.83 38.8636 185.875 37.1404 185.325 35.5819C184.774 34.0235 183.465 32.6588 181.937 32.673C180.779 32.6837 179.754 33.4508 178.825 34.2072C177.896 34.9637 176.913 35.7708 175.76 35.8833C174.606 35.9958 173.289 35.0625 173.375 33.7997L173.055 33.8046Z" fill="#2F2E41"/>
<path d="M134.395 113.14C133.438 113.431 132.417 113.327 131.525 112.85C130.633 112.372 129.932 111.553 129.555 110.549C129.178 109.544 129.152 108.423 129.48 107.398C129.809 106.374 130.47 105.516 131.338 104.989L139.95 94.3071L147.233 96.0276L136.989 106.998C137.241 107.581 137.373 108.218 137.375 108.863C137.378 109.508 137.251 110.146 137.003 110.731C136.756 111.317 136.394 111.836 135.944 112.252C135.493 112.668 134.964 112.971 134.395 113.14H134.395Z" fill="#FFB7B7"/>
<path d="M162.726 74.8988L141.263 104.355L134.721 101.071L159.948 58.1292L162.726 74.8988Z" fill="#3F3D56"/>
<path d="M145.601 163.845L140.486 163.757L141.101 182.819H145.6L145.601 163.845Z" fill="#FFB7B7"/>
<path d="M146.748 181.213L137.887 181.213H137.887C136.389 181.213 134.953 181.863 133.894 183.021C132.835 184.179 132.24 185.749 132.24 187.387V187.587L146.747 187.588L146.748 181.213Z" fill="#2F2E41"/>
<path d="M179.469 158.789L173.881 162.711L185.058 177.414L188.844 174.756L179.469 158.789Z" fill="#FFB7B7"/>
<path d="M189.017 172.727L181.56 177.961L181.56 177.961C180.3 178.845 179.413 180.241 179.094 181.841C178.775 183.441 179.05 185.114 179.859 186.492L179.958 186.66L192.167 178.091L189.017 172.727Z" fill="#2F2E41"/>
<path d="M181.46 100.582C181.46 100.582 169.044 55.4956 165.054 54.8863C161.064 54.2771 154.636 66.4549 154.636 66.4549C146.3 78.0825 137.706 115.747 137.706 115.747C137.706 115.747 152.034 116.727 162.507 122.82C172.981 128.913 185.342 122.511 185.342 122.511L181.46 100.582Z" fill="#3F3D56"/>
<path opacity="0.1" d="M181.46 100.582C181.46 100.582 169.044 55.4956 165.054 54.8864C161.064 54.2771 156.268 66.5785 156.268 66.5785C152.115 85.3482 137.706 115.747 137.706 115.747C137.706 115.747 152.034 116.727 162.507 122.82C172.981 128.913 185.342 122.511 185.342 122.511L181.46 100.582Z" fill="black"/>
<path d="M171.274 87.0921V109.747L173.712 142.565L185.895 167.39L180.081 171.931L163.467 148.317L156.896 124.871L146.577 176.775L138.824 176.169L144.209 104.205L154.426 83.9491L171.274 87.0921Z" fill="#2F2E41"/>
<path d="M158.755 65.1793C154.879 69.4176 158.479 73.9587 158.479 73.9587L154.048 84.8572L171.492 90.0038L177.588 60.221L173.435 55.3772C165.128 55.0744 165.124 54.8862 165.124 54.8862C163.668 56.4434 158.755 65.1793 158.755 65.1793Z" fill="#F56D00"/>
<path d="M178.291 57.1355C177.499 56.4961 176.598 56.0349 175.642 55.7787C174.685 55.5224 173.692 55.4762 172.719 55.6427C171.746 55.8092 170.813 56.1851 169.974 56.7486C169.135 57.3122 168.407 58.0521 167.831 58.9256C163.446 65.6017 159.391 76.3818 164.978 89.8266C173.948 111.415 181.755 122.466 184.929 122.465C185.067 122.466 185.205 122.442 185.337 122.395C187.29 121.67 190.115 118.056 190.626 114.871C190.809 113.731 190.765 112.143 189.519 111.053C185.937 107.921 179.507 98.1678 177.501 85.331C176.393 78.238 178.542 71.7769 180.541 67.6058C181.385 65.8799 181.632 63.8793 181.236 61.9705C180.841 60.0617 179.829 58.3727 178.387 57.2131L178.291 57.1355Z" fill="#3F3D56"/>
<path d="M172.767 49.7892C176.322 47.664 177.629 42.7895 175.685 38.9017C173.742 35.0139 169.283 33.5851 165.727 35.7103C162.172 37.8356 160.865 42.7101 162.809 46.5979C164.752 50.4857 169.211 51.9145 172.767 49.7892Z" fill="#FFB7B7"/>
<path d="M158.928 42.1432H169.523L169.632 40.48L170.175 42.1432H171.806L172.022 38.8468L173.098 42.1432H176.255V41.9799C176.253 39.685 175.418 37.4848 173.934 35.8621C172.45 34.2394 170.437 33.3266 168.338 33.324H166.845C164.746 33.3266 162.733 34.2394 161.249 35.8621C159.765 37.4848 158.93 39.685 158.928 41.9799V42.1432Z" fill="#2F2E41"/>
<path d="M174.655 48.1214L179.176 46.5173V34.5121H170.636L170.847 34.7429C173.789 37.9552 177.061 49.3521 174.655 48.1214Z" fill="#2F2E41"/>
</g>
<defs>
<clipPath id="clip0_328_35">
<rect width="226" height="188" fill="white"/>
</clipPath>
</defs>
</svg>
