<svg width="105" height="82" viewBox="0 0 105 82" fill="none" xmlns="http://www.w3.org/2000/svg">
<g clip-path="url(#clip0_506_78)">
<path d="M64.4809 72.8304L61.6786 75.39L63.9056 71.6824C62.1511 68.5255 59.2815 65.7971 59.2815 65.7971C59.2815 65.7971 53.3281 71.4564 53.3281 75.905C53.3281 80.3535 55.9935 81.9068 59.2815 81.9068C62.5694 81.9068 65.2348 80.3535 65.2348 75.905C65.2348 74.9148 64.9394 73.8647 64.4809 72.8304Z" fill="#F2F2F2"/>
<path d="M60.9576 75.5287V75.748C60.9445 78.2968 60.5112 80.2855 59.6611 81.6858C59.6491 81.7064 59.636 81.726 59.6239 81.7466L59.5287 81.6891L59.4379 81.6326C60.381 80.1205 60.7147 77.9831 60.7267 75.7599C60.7278 75.6883 60.7289 75.6155 60.7278 75.5428C60.7246 74.6017 60.6666 73.6497 60.5736 72.7248C60.567 72.6531 60.5594 72.5804 60.5517 72.5077C60.4226 71.2875 60.2366 70.1217 60.0462 69.1089C60.0331 69.0372 60.0189 68.9656 60.0047 68.895C59.6753 67.1821 59.3395 65.9413 59.2629 65.6667C59.2541 65.633 59.2487 65.6146 59.2476 65.6102L59.3515 65.5809L59.3526 65.5798L59.4576 65.5505C59.4587 65.5549 59.4773 65.6168 59.5079 65.7318C59.625 66.1617 59.9292 67.3286 60.2278 68.8679C60.241 68.9374 60.2552 69.009 60.2683 69.0807C60.4237 69.9024 60.5758 70.8208 60.6961 71.7847C60.7267 72.0268 60.7541 72.2656 60.7782 72.5012C60.7869 72.5739 60.7946 72.6466 60.8011 72.7183C60.9018 73.718 60.954 74.6549 60.9576 75.5287Z" fill="white"/>
<path d="M60.2279 68.8678C60.1546 68.8776 60.0802 68.8874 60.0047 68.895C59.7997 68.9159 59.5937 68.9264 59.3876 68.9265C58.5093 68.9276 57.6419 68.7333 56.8494 68.3577C56.8034 68.4152 56.7575 68.4727 56.7104 68.5313C57.5442 68.9351 58.4599 69.1445 59.3876 69.1436C59.6076 69.1435 59.8275 69.1319 60.0463 69.1088C60.1207 69.1012 60.195 69.0915 60.2683 69.0806C60.8734 68.9945 61.4618 68.8177 62.0134 68.5563C61.9663 68.4966 61.9204 68.438 61.8755 68.3805C61.3535 68.6225 60.7983 68.7868 60.2279 68.8678Z" fill="white"/>
<path d="M60.7785 72.501C60.7031 72.5054 60.6276 72.5075 60.5521 72.5076C60.5291 72.5086 60.505 72.5086 60.4821 72.5086C59.5304 72.5086 58.5928 72.2803 57.7492 71.8431C56.9057 71.4059 56.1812 70.7728 55.6375 69.9978C55.5938 70.0618 55.55 70.1259 55.5073 70.191C56.074 70.9752 56.8208 71.6142 57.6859 72.055C58.551 72.4958 59.5095 72.7257 60.4821 72.7257C60.5127 72.7257 60.5433 72.7257 60.574 72.7247C60.6505 72.7236 60.726 72.7214 60.8015 72.7181C61.9697 72.6588 63.0959 72.2668 64.0454 71.5892C64.0104 71.5251 63.9754 71.4611 63.9393 71.3971C63.0164 72.0624 61.918 72.446 60.7785 72.501Z" fill="white"/>
<path d="M60.9578 75.5286C60.8813 75.5351 60.8047 75.5394 60.7281 75.5427C60.646 75.546 60.564 75.5481 60.4819 75.5481C59.2031 75.5467 57.9592 75.1342 56.9363 74.3726C55.9135 73.611 55.1668 72.5411 54.8081 71.3232C54.7589 71.4112 54.7096 71.498 54.6626 71.5859C55.0668 72.801 55.8466 73.8588 56.8913 74.6091C57.9359 75.3593 59.1923 75.7639 60.4819 75.7652C60.564 75.7652 60.646 75.7641 60.727 75.7598C60.8047 75.7576 60.8813 75.7533 60.9578 75.7479C62.5047 75.6278 63.9479 74.9289 64.995 73.7928C64.972 73.7125 64.9457 73.6333 64.9195 73.5529C63.9081 74.6975 62.4871 75.4062 60.9578 75.5286Z" fill="white"/>
<path d="M14.3617 28.9356C22.2935 28.9356 28.7234 22.5558 28.7234 14.6859C28.7234 6.81606 22.2935 0.436279 14.3617 0.436279C6.42995 0.436279 0 6.81606 0 14.6859C0 22.5558 6.42995 28.9356 14.3617 28.9356Z" fill="#E4E4E4"/>
<path d="M14.3616 26.5607C20.9714 26.5607 26.3297 21.2442 26.3297 14.686C26.3297 8.12776 20.9714 2.81128 14.3616 2.81128C7.75185 2.81128 2.39355 8.12776 2.39355 14.686C2.39355 21.2442 7.75185 26.5607 14.3616 26.5607Z" fill="#F56D00"/>
<path d="M52.4999 28.9355C60.4316 28.9355 66.8616 22.5558 66.8616 14.6859C66.8616 6.81606 60.4316 0.436279 52.4999 0.436279C44.5681 0.436279 38.1382 6.81606 38.1382 14.6859C38.1382 22.5558 44.5681 28.9355 52.4999 28.9355Z" fill="#E4E4E4"/>
<path d="M52.4998 26.5607C59.1096 26.5607 64.4679 21.2442 64.4679 14.686C64.4679 8.12776 59.1096 2.81128 52.4998 2.81128C45.89 2.81128 40.5317 8.12776 40.5317 14.686C40.5317 21.2442 45.89 26.5607 52.4998 26.5607Z" fill="white"/>
<path d="M90.6381 28.9355C98.5698 28.9355 105 22.5558 105 14.6859C105 6.81606 98.5698 0.436279 90.6381 0.436279C82.7063 0.436279 76.2764 6.81606 76.2764 14.6859C76.2764 22.5558 82.7063 28.9355 90.6381 28.9355Z" fill="#E4E4E4"/>
<path d="M90.6385 26.5607C97.2483 26.5607 102.607 21.2442 102.607 14.686C102.607 8.12776 97.2483 2.81128 90.6385 2.81128C84.0287 2.81128 78.6704 8.12776 78.6704 14.686C78.6704 21.2442 84.0287 26.5607 90.6385 26.5607Z" fill="white"/>
<path d="M13.3446 18.9803C13.3232 18.9803 13.3018 18.9798 13.2804 18.9787C13.0911 18.9697 12.906 18.9201 12.7379 18.8334C12.5697 18.7467 12.4224 18.625 12.3062 18.4765L10.4703 16.1345C10.2565 15.8612 10.1608 15.5149 10.204 15.1716C10.2473 14.8283 10.426 14.516 10.701 14.3033L10.767 14.2523C11.0425 14.0402 11.3915 13.9452 11.7376 13.9881C12.0836 14.031 12.3983 14.2083 12.6127 14.4811C12.7162 14.6132 12.8472 14.7214 12.9968 14.7985C13.1463 14.8756 13.3109 14.9198 13.4792 14.9279C13.6476 14.9361 13.8157 14.908 13.9721 14.8457C14.1285 14.7834 14.2695 14.6883 14.3854 14.5669L18.1131 10.6626C18.2319 10.5382 18.3742 10.4382 18.532 10.3684C18.6897 10.2986 18.8597 10.2602 19.0324 10.2556C19.2051 10.251 19.377 10.2801 19.5383 10.3414C19.6996 10.4027 19.8471 10.4949 19.9725 10.6128L20.0334 10.67C20.2866 10.9081 20.4341 11.2361 20.4435 11.5821C20.4529 11.9281 20.3235 12.2635 20.0836 12.5148L14.2991 18.5728C14.1763 18.7015 14.0283 18.8041 13.8642 18.8741C13.7001 18.9442 13.5233 18.9803 13.3446 18.9803Z" fill="white"/>
<path d="M46.1966 11.8007H36.7437V3.64379C36.7534 3.13873 36.9645 2.6581 37.3309 2.30727C37.6972 1.95644 38.1887 1.76403 38.6978 1.77222H41.84C44.2422 1.77222 46.1966 3.64399 46.1966 5.9447V11.8007Z" fill="#2F2E41"/>
<path d="M49.6966 80.0573L47.9022 80.0571L47.0483 73.1895L49.6969 73.1896L49.6966 80.0573Z" fill="#FFB6B6"/>
<path d="M50.154 81.7832L44.3677 81.783V81.7104C44.3677 81.1178 44.605 80.5494 45.0274 80.1304C45.4497 79.7113 46.0226 79.4759 46.6199 79.4758H46.62L50.1541 79.476L50.154 81.7832Z" fill="#2F2E41"/>
<path d="M33.1561 80.0573L31.3615 80.0571L30.5078 73.1895L33.1564 73.1896L33.1561 80.0573Z" fill="#FFB6B6"/>
<path d="M33.6135 81.7832L27.8271 81.783V81.7104C27.8272 81.1178 28.0645 80.5494 28.4869 80.1304C28.9092 79.7113 29.482 79.4759 30.0794 79.4758H30.0795L33.6136 79.476L33.6135 81.7832Z" fill="#2F2E41"/>
<path d="M35.3229 24.8833L34.1519 32.2902L45.2763 32.4354L43.8126 25.3191L35.3229 24.8833Z" fill="#FFB6B6"/>
<path d="M34.4744 30.4817L30.9313 39.8424L30.4922 78.6345H33.4929L40.6653 47.4671L47.2522 77.8209H50.1797L48.1304 43.691C48.1304 43.691 48.7347 36.8408 45.642 32.7986L44.8893 30.6407L34.4744 30.4817Z" fill="#2F2E41"/>
<path d="M49.6728 37.7789C49.363 37.6951 49.0755 37.545 48.8306 37.3391C48.5856 37.1332 48.3892 36.8765 48.255 36.5871C48.1209 36.2977 48.0523 35.9826 48.0542 35.6641C48.056 35.3456 48.1283 35.0313 48.2658 34.7435L43.5332 19.4346L47.0142 18.75L51.3426 33.7559C51.8146 34.0171 52.1737 34.4411 52.3517 34.9474C52.5298 35.4538 52.5144 36.0074 52.3086 36.5033C52.1028 36.9992 51.7208 37.4029 51.235 37.638C50.7492 37.8731 50.1933 37.9232 49.6727 37.7789H49.6728Z" fill="#FFB6B6"/>
<path d="M43.4096 28.9739L35.7412 28.8271C35.522 28.8224 35.3104 28.7467 35.1388 28.6113C34.9671 28.476 34.845 28.2886 34.7909 28.0777C34.3798 26.4628 33.4754 22.2541 33.9551 18.0622C34.0498 17.2502 34.3077 16.4652 34.7135 15.7538C35.1193 15.0423 35.6648 14.4189 36.3177 13.9203C36.9706 13.4217 37.7177 13.0581 38.5147 12.851C39.3118 12.6439 40.1425 12.5976 40.958 12.7146C41.8181 12.8368 42.6425 13.1381 43.3771 13.5986C44.1117 14.0592 44.7398 14.6686 45.2203 15.387C45.7007 16.1054 46.0227 16.9164 46.1651 17.7669C46.3074 18.6174 46.2669 19.4882 46.0462 20.3221C45.0809 23.9592 44.5357 26.5612 44.4257 28.056C44.4094 28.2721 44.3222 28.477 44.1775 28.6394C44.0328 28.8018 43.8386 28.9127 43.6244 28.9552C43.5607 28.9678 43.4959 28.9741 43.4309 28.9742C43.4238 28.9742 43.4167 28.9741 43.4096 28.9739Z" fill="#E4E4E4"/>
<path d="M20.1163 15.5267C20.1624 15.6292 20.2002 15.7352 20.2295 15.8436L29.8282 19.0798L31.683 17.4722L34.4942 19.9323L31.4895 23.095C31.2467 23.3505 30.927 23.521 30.5783 23.5809C30.2296 23.6407 29.8707 23.5868 29.5556 23.427L19.2844 18.2215C18.9129 18.4475 18.4809 18.556 18.0458 18.5325C17.6107 18.5091 17.1931 18.3547 16.8486 18.09C16.5041 17.8253 16.2489 17.4628 16.1171 17.0507C15.9853 16.6386 15.9831 16.1964 16.1107 15.7831C16.2383 15.3697 16.4898 15.0046 16.8316 14.7365C17.1734 14.4684 17.5894 14.3098 18.0243 14.282C18.4591 14.2542 18.8922 14.3584 19.2659 14.5807C19.6396 14.803 19.9362 15.133 20.1163 15.5267V15.5267Z" fill="#FFB6B6"/>
<path d="M29.8477 18.5638C29.8484 18.4326 29.8777 18.3032 29.9334 18.1843C29.9892 18.0654 30.0702 17.9598 30.1708 17.8748L33.6855 14.9043C34.1302 14.3986 34.759 14.0886 35.4338 14.0422C36.1086 13.9958 36.7745 14.2169 37.2853 14.6569C37.796 15.097 38.1101 15.72 38.1585 16.3895C38.2069 17.059 37.9857 17.7201 37.5435 18.228L35.0406 22.095C34.9692 22.2054 34.8746 22.2991 34.7634 22.37C34.6521 22.4408 34.5268 22.487 34.3959 22.5054C34.265 22.5238 34.1317 22.5141 34.005 22.4767C33.8782 22.4394 33.7611 22.3755 33.6615 22.2892L30.1624 19.2568C30.0628 19.1706 29.9831 19.064 29.9288 18.9444C29.8745 18.8248 29.8468 18.695 29.8477 18.5638Z" fill="#E4E4E4"/>
<path d="M43.3212 23.3124C43.2042 23.2514 43.1018 23.166 43.0211 23.0621C42.9404 22.9582 42.8832 22.8383 42.8535 22.7105L41.8144 18.2472C41.5669 17.6226 41.5791 16.9262 41.8484 16.3106C42.1177 15.6949 42.622 15.2104 43.2508 14.9632C43.8796 14.7159 44.5816 14.7262 45.2027 14.9918C45.8239 15.2573 46.3136 15.7565 46.5644 16.3797L48.8716 20.3647C48.9374 20.4784 48.9778 20.6049 48.9899 20.7355C49.002 20.8661 48.9857 20.9978 48.9419 21.1215C48.8981 21.2453 48.828 21.3582 48.7362 21.4527C48.6445 21.5471 48.5333 21.6208 48.4103 21.6688L44.0861 23.3543C43.963 23.4023 43.831 23.4235 43.699 23.4162C43.567 23.409 43.4381 23.3736 43.3212 23.3124Z" fill="#E4E4E4"/>
<path d="M47.0411 2.56929C47.3961 1.74457 46.7855 0.695226 45.6773 0.225505C44.569 -0.244216 43.3827 0.0435622 43.0277 0.868282C42.6726 1.693 43.2832 2.74236 44.3915 3.21208C45.4997 3.6818 46.686 3.39401 47.0411 2.56929Z" fill="#2F2E41"/>
<path d="M43.6029 8.69947C44.7885 6.54753 43.9915 3.84941 41.8226 2.67305C39.6537 1.49669 36.9344 2.28756 35.7488 4.4395C34.5632 6.59144 35.3603 9.28956 37.5291 10.4659C39.698 11.6423 42.4173 10.8514 43.6029 8.69947Z" fill="#FFB6B6"/>
<path d="M42.1312 1.48377H37.012C36.6367 1.47895 36.2734 1.61509 35.9951 1.86489C35.7167 2.11468 35.5438 2.45967 35.511 2.83065C35.4978 3.0278 35.5255 3.22554 35.5924 3.41163C35.6594 3.59772 35.7641 3.76819 35.9001 3.91247C36.0362 4.05676 36.2007 4.17178 36.3833 4.25043C36.566 4.32907 36.763 4.36965 36.9622 4.36966C37.3479 4.36966 37.7178 4.52168 37.9905 4.79228C38.2633 5.06289 38.4165 5.42991 38.4165 5.8126V11.7287H46.4151V5.7342C46.4151 5.17603 46.3043 4.62332 46.089 4.10763C45.8737 3.59194 45.5582 3.12338 45.1604 2.72869C44.7626 2.334 44.2903 2.02091 43.7706 1.80731C43.2508 1.59371 42.6938 1.48377 42.1312 1.48377Z" fill="#2F2E41"/>
<path d="M67.3665 82H11.9579C11.9194 82 11.8824 81.9848 11.8551 81.9577C11.8278 81.9307 11.8125 81.894 11.8125 81.8557C11.8125 81.8174 11.8278 81.7807 11.8551 81.7537C11.8824 81.7266 11.9194 81.7114 11.9579 81.7114H67.3665C67.4051 81.7114 67.4421 81.7266 67.4693 81.7537C67.4966 81.7807 67.5119 81.8174 67.5119 81.8557C67.5119 81.894 67.4966 81.9307 67.4693 81.9577C67.4421 81.9848 67.4051 82 67.3665 82Z" fill="#CACACA"/>
</g>
<defs>
<clipPath id="clip0_506_78">
<rect width="105" height="82" fill="white"/>
</clipPath>
</defs>
</svg>
