<svg width="59" height="59" viewBox="0 0 59 59" fill="none" xmlns="http://www.w3.org/2000/svg">
<path d="M59 28.7402C59 44.6132 46.0338 57.4804 30.0362 57.4804C24.9577 57.4804 20.1865 56.1824 16.0355 53.9044L0 59L5.22806 43.58C2.59076 39.2494 1.07183 34.1702 1.07183 28.7402C1.07183 12.8672 14.0394 0 30.0362 0C46.0351 0 59 12.8672 59 28.7402ZM30.0362 4.57709C16.6078 4.57709 5.68498 15.4167 5.68498 28.7402C5.68498 34.0273 7.40843 38.9236 10.3237 42.9068L7.28126 51.8807L16.6393 48.9064C20.4841 51.431 25.0901 52.9033 30.0369 52.9033C43.4633 52.9033 54.3882 42.065 54.3882 28.7415C54.3882 15.418 43.464 4.57709 30.0362 4.57709ZM44.6623 35.3594C44.4834 35.0663 44.0107 34.8893 43.3014 34.5373C42.5908 34.1853 39.0993 32.4802 38.4503 32.2461C37.7993 32.0114 37.3247 31.8934 36.8521 32.5982C36.3794 33.3035 35.0185 34.8893 34.6035 35.3594C34.1892 35.8307 33.7755 35.8897 33.0649 35.537C32.3556 35.185 30.0684 34.4403 27.3563 32.0409C25.2461 30.1739 23.8209 27.869 23.4066 27.1629C22.993 26.4582 23.3633 26.0773 23.718 25.7266C24.0379 25.4106 24.4286 24.9039 24.7833 24.4929C25.1392 24.0812 25.2572 23.7881 25.4926 23.3175C25.7306 22.8474 25.6119 22.4364 25.4336 22.083C25.2566 21.731 23.8353 18.2644 23.244 16.8537C22.6527 15.4442 22.0621 15.6789 21.6471 15.6789C21.2334 15.6789 20.7595 15.6199 20.2862 15.6199C19.8129 15.6199 19.0432 15.7963 18.3923 16.501C17.742 17.2064 15.9084 18.9108 15.9084 22.3767C15.9084 25.8433 18.4513 29.1925 18.8072 29.6619C19.1619 30.1313 23.7173 37.4761 30.935 40.297C38.1533 43.1165 38.1533 42.1758 39.4553 42.0578C40.7559 41.9405 43.6548 40.354 44.2487 38.7099C44.8387 37.0631 44.8387 35.653 44.6623 35.3594Z" fill="black"/>
</svg>
